<svg xmlns="http://www.w3.org/2000/svg" width="80" height="14" viewBox="0 0 80 14" fill="none">
  <path className="brand__svg__logo__top" fill="#5CBBFF" />
  <path className="brand__svg__logo__bottom" d="M47.011 7.08752H39.8901V10.6312H47.011V7.08752Z" fill="#0072C6" />
  <path className="brand__svg" d="M6.54596 3.56762V10.7506C6.54596 12.0103 6.16476 12.9224 5.38559 13.4687C4.86715 13.8178 4.19472 13.9999 3.37133 13.9999C2.54794 13.9999 1.84501 13.7875 1.29608 13.3777C0.731903 12.9679 0.365951 12.3305 0.320208 11.5853H1.95327C2.02951 12.1924 2.48694 12.6932 3.4186 12.6932C4.45546 12.6932 4.94492 12.0862 4.94492 10.9616V9.57902C4.54847 10.3834 3.86231 10.8098 2.91541 10.8098C1.16037 10.8113 0 9.33923 0 7.09159C0 4.84396 1.16037 3.3855 2.91389 3.3855C3.85926 3.3855 4.54695 3.79526 4.94339 4.61479V3.56762H6.54596ZM4.97389 7.09007C4.97389 5.64679 4.34872 4.81209 3.27984 4.81209C2.21096 4.81209 1.61629 5.63162 1.61629 7.09007C1.61629 8.54853 2.21096 9.36806 3.27984 9.36806C4.34872 9.36806 4.97389 8.53336 4.97389 7.09007Z" />
  <path className="brand__svg" d="M11.2269 8.15408V3.56775H12.86V7.82019C12.86 8.9129 13.2412 9.43042 14.0341 9.43042C14.888 9.43042 15.3622 8.77783 15.3622 7.57737V3.56775H16.9801V10.6294H15.3622V9.61253C14.9963 10.3865 14.4016 10.8115 13.3327 10.8115C12.0198 10.8115 11.2269 9.825 11.2269 8.15408Z" />
  <path className="brand__svg" d="M24.1956 7.62321H19.7706C19.8163 8.74627 20.35 9.43073 21.3884 9.43073C22.1051 9.43073 22.532 9.1272 22.7013 8.56567H24.1666C23.9684 9.9786 23.0215 10.8133 21.3899 10.8133C19.3604 10.8133 18.2015 9.4626 18.2015 7.12239C18.2015 4.78217 19.3604 3.38745 21.3137 3.38745C23.267 3.38745 24.2581 4.72298 24.2581 6.60638C24.2581 6.83403 24.2429 7.28933 24.1971 7.62321M22.686 6.40757C22.686 5.22381 22.1828 4.64558 21.2969 4.64558C20.3668 4.64558 19.7858 5.283 19.7706 6.40757H22.6845H22.686Z" />
  <path className="brand__svg" d="M25.2933 7.09159C25.2933 4.8136 26.5132 3.3855 28.436 3.3855C30.3589 3.3855 31.3653 4.37197 31.35 6.07325H29.7322C29.6712 5.20819 29.2595 4.78325 28.436 4.78325C27.4754 4.78325 26.9097 5.63313 26.9097 7.09159C26.9097 8.55005 27.4281 9.39993 28.4665 9.39993C29.2442 9.39993 29.6574 9.00534 29.7489 8.20099H31.3668C31.2296 9.8871 30.1911 10.8129 28.4376 10.8129C26.4537 10.8129 25.2949 9.41511 25.2949 7.09311" />
  <path className="brand__svg" d="M55.1915 7.09159C55.1915 4.85913 56.3519 3.3855 58.1055 3.3855C59.0508 3.3855 59.7385 3.79526 60.1502 4.61479V3.56762H61.7528V10.6292H60.1502V9.56687C59.7385 10.3864 59.0524 10.8113 58.1055 10.8113C56.3504 10.8113 55.1915 9.33771 55.1915 7.09159ZM60.1655 7.09159C60.1655 5.64831 59.5403 4.8136 58.4714 4.8136C57.4025 4.8136 56.8078 5.63313 56.8078 7.09159C56.8078 8.55005 57.4025 9.38475 58.4714 9.38475C59.5403 9.38475 60.1655 8.55005 60.1655 7.09159Z" />
  <path className="brand__svg" d="M63.2852 3.56791H64.9182V4.58474C65.2994 3.76521 65.9856 3.38428 66.902 3.38428C68.2911 3.38428 69.0687 4.24934 69.0687 6.04168V10.628H67.4509V6.51215C67.4509 5.29803 67.1002 4.75016 66.26 4.75016C65.3147 4.75016 64.9182 5.44828 64.9182 6.75497V10.628H63.2852V3.56791Z" />
  <path className="brand__svg" d="M69.4573 13.7739V12.3306C69.6098 12.3762 69.7775 12.3913 70.0062 12.3913C70.418 12.3913 70.6009 12.1637 70.6009 11.6325V3.56775H72.2189V11.8131C72.2189 13.2867 71.5784 13.909 70.3722 13.909C69.9605 13.909 69.6403 13.8331 69.4573 13.7724" />
  <path className="brand__svg" d="M73.4388 7.09159C73.4388 4.85913 74.5992 3.3855 76.3527 3.3855C77.2981 3.3855 77.9858 3.79526 78.3974 4.61479V3.56762H80V10.6292H78.3974V9.56687C77.9858 10.3864 77.2996 10.8113 76.3527 10.8113C74.5977 10.8113 73.4388 9.33771 73.4388 7.09159ZM78.4127 7.09159C78.4127 5.64831 77.7875 4.8136 76.7187 4.8136C75.6498 4.8136 75.0551 5.63313 75.0551 7.09159C75.0551 8.55005 75.6498 9.38475 76.7187 9.38475C77.7875 9.38475 78.4127 8.55005 78.4127 7.09159Z" />
  <path className="brand__svg" d="M72.2206 0.345947H70.6028V1.95617H72.2206V0.345947Z" />
  <path className="brand__svg" d="M8.0769 0.535729V10.6296H9.69471V0L8.0769 0.535729Z" />
  <path className="brand__svg" d="M38.2755 3.56799H36.3985L34.186 6.78843V0H34.183L32.5835 0.529659V10.6296H34.186V7.16785L36.3222 10.6296H38.245L35.8343 6.87949L38.2755 3.56799Z" />
  <path className="brand__svg" d="M54.9292 3.56799H53.0521L50.8396 6.78843V0H50.8351L49.2371 0.529659V10.6296H50.8396V7.16785L52.9759 10.6296H54.8987L52.488 6.87949L54.9292 3.56799Z" />
</svg>
