<svg xmlns="http://www.w3.org/2000/svg" width="20" height="12" viewBox="0 0 20 12" fill="none">
  <path d="M7.46298 6.00005C7.46298 6.71409 7.74664 7.39889 8.25154 7.9038C8.75645 8.4087 9.44125 8.69236 10.1553 8.69236C10.8693 8.69236 11.5541 8.4087 12.059 7.9038C12.5639 7.39889 12.8476 6.71409 12.8476 6.00005C12.8476 5.286 12.5639 4.6012 12.059 4.0963C11.5541 3.59139 10.8693 3.30774 10.1553 3.30774C9.44125 3.30774 8.75645 3.59139 8.25154 4.0963C7.74664 4.6012 7.46298 5.286 7.46298 6.00005Z" stroke="#7F7F7F" strokeWidth="1.5" strokeLinecap="round" strokeLinejoin="round" />
  <path d="M18.9091 5.74615C18.0091 4.73077 14.4322 1 10.1553 1C5.87837 1 2.30145 4.73077 1.40145 5.74615C1.34269 5.8177 1.31058 5.90742 1.31058 6C1.31058 6.09258 1.34269 6.1823 1.40145 6.25385C2.30145 7.26923 5.87837 11 10.1553 11C14.4322 11 18.0091 7.26923 18.9091 6.25385C18.9679 6.1823 19 6.09258 19 6C19 5.90742 18.9679 5.8177 18.9091 5.74615Z" stroke="#7F7F7F" strokeWidth="1.5" strokeLinecap="round" strokeLinejoin="round" />
  <line x1="14.0303" y1="2.03033" x2="6.03033" y2="10.0303" stroke="#7F7F7F" strokeWidth="1.5" />
</svg>